<svg viewBox="0 0 31 45" version="1.1" xmlns="http://www.w3.org/2000/svg" xmlns:xlink="http://www.w3.org/1999/xlink">
    <g stroke="none" stroke-width="1" fill="none" fill-rule="evenodd">
        <g transform="translate(-1224.000000, -893.000000)" stroke="#F6F6F6">
            <g id="mouse" transform="translate(1224.000000, 893.000000)">
                <path d="M15.5,1 C12.7489561,1 10.195026,1.65914308 8.00438462,2.90276267 C5.86503193,4.11726581 4.11726581,5.86503193 2.90276267,8.00438462 C1.65914308,10.195026 1,12.7489561 1,15.5 L1,34.7444592 C1,37.844761 1.24603676,39.1188439 1.95034401,40.435784 C2.55437258,41.5652192 3.43478081,42.4456274 4.56421604,43.049656 C5.88115612,43.7539632 7.15523901,44 10.2555408,44 L20.7444592,44 C23.844761,44 25.1188439,43.7539632 26.435784,43.049656 C27.5652192,42.4456274 28.4456274,41.5652192 29.049656,40.435784 C29.7539632,39.1188439 30,37.844761 30,34.7444592 L30,15.5 C30,12.7489561 29.3408569,10.195026 28.0972373,8.00438462 C26.8827342,5.86503193 25.1349681,4.11726581 22.9956154,2.90276267 C20.804974,1.65914308 18.2510439,1 15.5,1 Z" id="Rectangle" stroke-width="2"></path>
                <path d="M15.5,9.64285714 L15.5,17.3571429" id="Line" stroke-width="3" stroke-linecap="round" stroke-linejoin="round"></path>
            </g>
        </g>
    </g>
</svg>