<?xml version="1.0" standalone="no"?>
<!DOCTYPE svg PUBLIC "-//W3C//DTD SVG 20010904//EN"
 "http://www.w3.org/TR/2001/REC-SVG-20010904/DTD/svg10.dtd">
<svg version="1.0" xmlns="http://www.w3.org/2000/svg"
 width="700.000000pt" height="700.000000pt" viewBox="0 0 700.000000 700.000000"
 preserveAspectRatio="xMidYMid meet">
<metadata>
Created by potrace 1.11, written by Peter Selinger 2001-2013
</metadata>
<g transform="translate(0.000000,700.000000) scale(0.100000,-0.100000)"
fill="#000000" stroke="none">
<path d="M1682 5760 c-4 -3 -7 -810 -7 -1795 0 -1545 -6 -2198 -20 -2288 -2
-12 -6 -78 -10 -147 -3 -69 -9 -140 -11 -158 l-5 -32 238 2 238 3 1 30 c1 17
5 197 8 400 11 564 17 657 51 790 84 324 331 569 702 698 408 142 900 129
1306 -35 284 -115 486 -279 600 -488 93 -169 97 -203 112 -855 7 -281 9 -304
30 -366 37 -103 109 -185 206 -234 56 -29 152 -52 209 -51 l35 1 -1 65 c-1 86
-13 423 -19 530 -2 47 -7 157 -10 245 -16 472 -23 531 -76 686 -37 110 -127
268 -195 345 -140 158 -270 261 -449 355 -220 115 -516 206 -760 235 -33 3
-69 9 -80 11 -50 12 -516 10 -620 -2 -372 -45 -697 -161 -942 -336 l-83 -59
-2 1228 -3 1227 -218 0 c-120 0 -221 -2 -225 -5z"/>
<path d="M5260 5482 c-177 -23 -326 -164 -359 -338 -5 -27 -12 -150 -15 -274
-6 -210 -15 -429 -20 -475 -10 -89 -62 -222 -118 -302 -34 -49 -122 -142 -192
-201 -21 -18 -37 -35 -35 -36 2 -2 59 -27 126 -56 67 -28 157 -74 200 -100 55
-34 83 -46 94 -40 27 15 168 169 208 229 57 84 98 170 126 267 35 122 41 165
50 394 3 74 8 173 10 220 5 86 11 223 20 430 3 63 8 154 11 202 l6 87 -44 -2
c-24 -1 -54 -3 -68 -5z"/>
</g>
</svg>
